<svg viewBox="-122.46875 -18.5 630.46875 172.9668731689453" aria-labelledby="chart-title-graph-div chart-desc-graph-div" role="img" xmlns="http://www.w3.org/2000/svg" width="630.46875" id="graph-div" height="100%" style="max-width: 100%;" xmlns:xlink="http://www.w3.org/1999/xlink"><style>@import url("https://cdnjs.cloudflare.com/ajax/libs/font-awesome/6.2.1/css/all.min.css");'</style><title id="chart-title-graph-div"></title><desc id="chart-desc-graph-div"></desc><style>#graph-div {font-family:"trebuchet ms",verdana,arial,sans-serif;font-size:16px;fill:#ccc;}#graph-div .error-icon{fill:#a44141;}#graph-div .error-text{fill:#ddd;stroke:#ddd;}#graph-div .edge-thickness-normal{stroke-width:2px;}#graph-div .edge-thickness-thick{stroke-width:3.5px;}#graph-div .edge-pattern-solid{stroke-dasharray:0;}#graph-div .edge-pattern-dashed{stroke-dasharray:3;}#graph-div .edge-pattern-dotted{stroke-dasharray:2;}#graph-div .marker{fill:lightgrey;stroke:lightgrey;}#graph-div .marker.cross{stroke:lightgrey;}#graph-div svg{font-family:"trebuchet ms",verdana,arial,sans-serif;font-size:16px;}#graph-div .commit-id,#graph-div .commit-msg,#graph-div .branch-label{fill:lightgrey;color:lightgrey;font-family:'trebuchet ms',verdana,arial,sans-serif;font-family:var(--mermaid-font-family);}#graph-div .branch-label0{fill:undefined;}#graph-div .commit0{stroke:hsl(180, 1.5873015873%, 48.3529411765%);fill:hsl(180, 1.5873015873%, 48.3529411765%);}#graph-div .commit-highlight0{stroke:rgb(133.6571428571, 129.7428571428, 129.7428571428);fill:rgb(133.6571428571, 129.7428571428, 129.7428571428);}#graph-div .label0{fill:hsl(180, 1.5873015873%, 48.3529411765%);}#graph-div .arrow0{stroke:hsl(180, 1.5873015873%, 48.3529411765%);}#graph-div .branch-label1{fill:undefined;}#graph-div .commit1{stroke:hsl(321.6393442623, 65.5913978495%, 38.2352941176%);fill:hsl(321.6393442623, 65.5913978495%, 38.2352941176%);}#graph-div .commit-highlight1{stroke:rgb(93.5483870969, 221.4516129033, 139.677419355);fill:rgb(93.5483870969, 221.4516129033, 139.677419355);}#graph-div .label1{fill:hsl(321.6393442623, 65.5913978495%, 38.2352941176%);}#graph-div .arrow1{stroke:hsl(321.6393442623, 65.5913978495%, 38.2352941176%);}#graph-div .branch-label2{fill:undefined;}#graph-div .commit2{stroke:hsl(194.4, 16.5562913907%, 49.6078431373%);fill:hsl(194.4, 16.5562913907%, 49.6078431373%);}#graph-div .commit-highlight2{stroke:rgb(149.4437086091, 117.6092715231, 107.5562913906);fill:rgb(149.4437086091, 117.6092715231, 107.5562913906);}#graph-div .label2{fill:hsl(194.4, 16.5562913907%, 49.6078431373%);}#graph-div .arrow2{stroke:hsl(194.4, 16.5562913907%, 49.6078431373%);}#graph-div .branch-label3{fill:undefined;}#graph-div .commit3{stroke:hsl(23.0769230769, 49.0566037736%, 40.7843137255%);fill:hsl(23.0769230769, 49.0566037736%, 40.7843137255%);}#graph-div .commit-highlight3{stroke:rgb(99.9811320754, 162.7735849057, 202.0188679245);fill:rgb(99.9811320754, 162.7735849057, 202.0188679245);}#graph-div .label3{fill:hsl(23.0769230769, 49.0566037736%, 40.7843137255%);}#graph-div .arrow3{stroke:hsl(23.0769230769, 49.0566037736%, 40.7843137255%);}#graph-div .branch-label4{fill:undefined;}#graph-div .commit4{stroke:hsl(0, 83.3333333333%, 43.5294117647%);fill:hsl(0, 83.3333333333%, 43.5294117647%);}#graph-div .commit-highlight4{stroke:rgb(51.5000000001, 236.5, 236.5);fill:rgb(51.5000000001, 236.5, 236.5);}#graph-div .label4{fill:hsl(0, 83.3333333333%, 43.5294117647%);}#graph-div .arrow4{stroke:hsl(0, 83.3333333333%, 43.5294117647%);}#graph-div .branch-label5{fill:undefined;}#graph-div .commit5{stroke:hsl(289.1666666667, 100%, 24.1176470588%);fill:hsl(289.1666666667, 100%, 24.1176470588%);}#graph-div .commit-highlight5{stroke:rgb(154.2083333334, 255, 132.0000000001);fill:rgb(154.2083333334, 255, 132.0000000001);}#graph-div .label5{fill:hsl(289.1666666667, 100%, 24.1176470588%);}#graph-div .arrow5{stroke:hsl(289.1666666667, 100%, 24.1176470588%);}#graph-div .branch-label6{fill:undefined;}#graph-div .commit6{stroke:hsl(35.1315789474, 98.7012987013%, 40.1960784314%);fill:hsl(35.1315789474, 98.7012987013%, 40.1960784314%);}#graph-div .commit-highlight6{stroke:rgb(51.331168831, 135.1948051946, 253.6688311688);fill:rgb(51.331168831, 135.1948051946, 253.6688311688);}#graph-div .label6{fill:hsl(35.1315789474, 98.7012987013%, 40.1960784314%);}#graph-div .arrow6{stroke:hsl(35.1315789474, 98.7012987013%, 40.1960784314%);}#graph-div .branch-label7{fill:undefined;}#graph-div .commit7{stroke:hsl(106.1538461538, 84.4155844156%, 35.0980392157%);fill:hsl(106.1538461538, 84.4155844156%, 35.0980392157%);}#graph-div .commit-highlight7{stroke:rgb(206.1818181817, 89.948051948, 241.051948052);fill:rgb(206.1818181817, 89.948051948, 241.051948052);}#graph-div .label7{fill:hsl(106.1538461538, 84.4155844156%, 35.0980392157%);}#graph-div .arrow7{stroke:hsl(106.1538461538, 84.4155844156%, 35.0980392157%);}#graph-div .branch{stroke-width:1;stroke:lightgrey;stroke-dasharray:2;}#graph-div .commit-label{font-size:10px;fill:rgb(183.8476190475, 181.5523809523, 181.5523809523);}#graph-div .commit-label-bkg{font-size:10px;fill:hsl(180, 1.5873015873%, 28.3529411765%);opacity:0.5;}#graph-div .tag-label{font-size:10px;fill:#e0dfdf;}#graph-div .tag-label-bkg{fill:#1f2020;stroke:#cccccc;}#graph-div .tag-hole{fill:#ccc;}#graph-div .commit-merge{stroke:#1f2020;fill:#1f2020;}#graph-div .commit-reverse{stroke:#1f2020;fill:#1f2020;stroke-width:3;}#graph-div .commit-highlight-inner{stroke:#1f2020;fill:#1f2020;}#graph-div .arrow{stroke-width:8;stroke-linecap:round;fill:none;}:root{--mermaid-font-family:"trebuchet ms",verdana,arial,sans-serif;}</style><g></g><g class="commit-bullets"></g><g class="commit-labels"></g><g><line class="branch branch0" y2="0" x2="500" y1="0" x1="0"></line><rect transform="translate(-19, -9.25)" height="22.5" width="52.9921875" y="-1.25" x="-68.9921875" ry="4" rx="4" class="branchLabelBkg label0"></rect><g class="branchLabel"><g transform="translate(-78.9921875, -10.25)" class="label branch-label0"><text><tspan class="row" x="0" dy="1em" xml:space="preserve">main</tspan></text></g></g><line class="branch branch1" y2="90" x2="500" y1="90" x1="0"></line><rect transform="translate(-19, 80.75)" height="22.5" width="79.46875" y="-1.25" x="-95.46875" ry="4" rx="4" class="branchLabelBkg label1"></rect><g class="branchLabel"><g transform="translate(-105.46875, 79.75)" class="label branch-label1"><text><tspan class="row" x="0" dy="1em" xml:space="preserve">feature1</tspan></text></g></g></g><g class="commit-arrows"><path class="arrow arrow0" d="M 10 0 L 10 0  10 0 L 60 0"></path><path class="arrow arrow1" d="M 60 0 L 60 70 A 20 20, 0, 0, 0, 80 90 L 110 90"></path><path class="arrow arrow1" d="M 110 90 L 110 90  110 90 L 160 90"></path><path class="arrow arrow0" d="M 60 0 L 60 0  60 0 L 210 0"></path><path class="arrow arrow0" d="M 210 0 L 210 0  210 0 L 260 0"></path><path class="arrow arrow0" d="M 260 0 L 260 0  260 0 L 310 0"></path><path class="arrow arrow0" d="M 160 90 L 160 55 A 10 10, 0, 0, 1, 170 45 L 300 45 A 10 10, 0, 0, 0, 310 35 L 310 0"></path><path class="arrow arrow0" d="M 310 0 L 310 0  310 0 L 360 0"></path><path class="arrow arrow1" d="M 160 90 L 160 90  160 90 L 410 90"></path><path class="arrow arrow1" d="M 410 90 L 410 90  410 90 L 460 90"></path></g><g class="commit-bullets"><circle class="commit 0-0489b8c commit0" r="10" cy="0" cx="10"></circle><circle class="commit 1-5f26bbf commit0" r="10" cy="0" cx="60"></circle><circle class="commit 2-98631c7 commit1" r="10" cy="90" cx="110"></circle><circle class="commit 3-9c69fbe commit1" r="10" cy="90" cx="160"></circle><circle class="commit 4-a2b1ef2 commit0" r="10" cy="0" cx="210"></circle><circle class="commit 5-e363c27 commit0" r="10" cy="0" cx="260"></circle><circle class="commit 6-dcab3ee commit0" r="9" cy="0" cx="310"></circle><circle class="commit commit-merge 6-dcab3ee commit0" r="6" cy="0" cx="310"></circle><circle class="commit 7-39016b4 commit0" r="10" cy="0" cx="360"></circle><circle class="commit 8-27df5de commit1" r="10" cy="90" cx="410"></circle><circle class="commit 9-5c863f6 commit1" r="10" cy="90" cx="460"></circle></g><g class="commit-labels"><g transform="translate(-28.669042968750002, 25.54072265625) rotate(-45, 0, 0)"><rect height="15.5" width="49.7080078125" y="13.5" x="-14.85400390625" class="commit-label-bkg"></rect><text class="commit-label" y="25" x="-12.85400390625">0-0489b8c</text></g><g transform="translate(-27.825175781250003, 24.78568359375) rotate(-45, 50, 0)"><rect height="15.5" width="47.4873046875" y="13.5" x="36.25634765625" class="commit-label-bkg"></rect><text class="commit-label" y="25" x="38.25634765625">1-5f26bbf</text></g><g transform="translate(-28.6233984375, 25.499882812499997) rotate(-45, 100, 90)"><rect height="15.5" width="49.587890625" y="103.5" x="85.2060546875" class="commit-label-bkg"></rect><text class="commit-label" y="115" x="87.2060546875">2-98631c7</text></g><g transform="translate(-28.15953125, 25.084843749999997) rotate(-45, 150, 90)"><rect height="15.5" width="48.3671875" y="103.5" x="135.81640625" class="commit-label-bkg"></rect><text class="commit-label" y="115" x="137.81640625">3-9c69fbe</text></g><g transform="translate(-28.4475, 25.3425) rotate(-45, 200, 0)"><rect height="15.5" width="49.125" y="13.5" x="185.4375" class="commit-label-bkg"></rect><text class="commit-label" y="25" x="187.4375">4-a2b1ef2</text></g><g transform="translate(-28.70318359375, 25.571269531250003) rotate(-45, 250, 0)"><rect height="15.5" width="49.7978515625" y="13.5" x="235.10107421875" class="commit-label-bkg"></rect><text class="commit-label" y="25" x="237.10107421875">5-e363c27</text></g><g transform="translate(-28.859042968750003, 25.71072265625) rotate(-45, 350, 0)"><rect height="15.5" width="50.2080078125" y="13.5" x="334.89599609375" class="commit-label-bkg"></rect><text class="commit-label" y="25" x="336.89599609375">7-39016b4</text></g><g transform="translate(-28.395175781250003, 25.29568359375) rotate(-45, 400, 90)"><rect height="15.5" width="48.9873046875" y="103.5" x="385.50634765625" class="commit-label-bkg"></rect><text class="commit-label" y="115" x="387.50634765625">8-27df5de</text></g><g transform="translate(-27.939843749999998, 24.88828125) rotate(-45, 450, 90)"><rect height="15.5" width="47.7890625" y="103.5" x="436.10546875" class="commit-label-bkg"></rect><text class="commit-label" y="115" x="438.10546875">9-5c863f6</text></g></g></svg>